<?xml version="1.0" encoding="UTF-8" standalone="no"?>
<!-- Created with Inkscape (http://www.inkscape.org/) -->

<svg
   width="165.95218mm"
   height="41.501579mm"
   viewBox="0 0 165.95218 41.501579"
   version="1.1"
   id="svg1"
   xmlns="http://www.w3.org/2000/svg"
   xmlns:svg="http://www.w3.org/2000/svg">
  <defs
     id="defs1" />
  <g
     id="layer1"
     transform="translate(-35.904063,-51.079829)">
    <g
       id="g5">
      <g
         id="g4"
         transform="rotate(27.892463,56.654854,71.830612)">
        <circle
           style="fill:#007e5b;fill-opacity:1;stroke:#ffffff;stroke-width:1.5;stroke-dasharray:none;stroke-opacity:1"
           id="path1"
           cx="56.654854"
           cy="71.830612"
           r="20" />
        <path
           style="fill:none;fill-opacity:1;stroke:#ffffff;stroke-width:1.16204;stroke-dasharray:none;stroke-opacity:1"
           d="m 56.64718,55.936266 c 0,0 11.754345,7.636033 0,15.894795 -11.719719,8.234434 0,15.894787 0,15.894787"
           id="path2" />
        <path
           style="fill:#ffffff;fill-opacity:1;stroke:none;stroke-width:1.5;stroke-dasharray:none;stroke-opacity:1"
           d="m 57.457316,58.880658 c -1.118635,-0.85749 -2.464137,-1.326359 -3.156378,-2.137661 -0.69224,-0.811303 -0.731216,-1.964995 0.09901,-2.569136 0.830223,-0.604141 2.529578,-0.658707 3.925398,-0.02259 1.395821,0.636119 2.488005,1.962844 3.361104,3.475175 0.873098,1.512332 1.527016,3.210118 1.686378,4.932127 0.159362,1.72201 -0.175832,3.468135 -0.967073,4.883003 -0.791241,1.414869 -2.038475,2.498403 -3.164915,3.414365 -1.126439,0.915962 -2.13202,1.664302 -3.05578,2.514007 -0.923759,0.849704 -1.76564,1.800717 -2.358091,2.927161 -0.592451,1.126444 -0.93544,2.428242 -1.017289,3.406567 -0.08185,0.978324 0.09744,1.63312 0.452135,2.373689 0.354694,0.740569 0.884768,1.56686 1.734474,2.264549 0.849705,0.69769 2.018986,1.26674 2.771242,1.785136 0.752255,0.518396 1.087451,0.98611 1.180993,1.50061 0.09354,0.5145 -0.05457,1.075752 -0.600252,1.477216 -0.545685,0.401464 -1.488904,0.643115 -2.646528,0.381963 -1.157625,-0.261152 -2.529581,-1.025083 -3.670158,-2.350103 -1.140578,-1.32502 -2.049694,-3.211002 -2.353719,-4.964994 -0.304026,-1.753991 -0.0029,-3.375811 0.689428,-4.810381 0.692346,-1.43457 1.775879,-2.681802 2.933503,-3.835526 1.157623,-1.153725 2.389265,-2.213872 3.50791,-3.242869 1.118644,-1.028997 2.124228,-2.026785 2.755654,-2.997317 0.631427,-0.970532 0.888667,-1.91375 0.958825,-2.75176 0.07016,-0.838009 -0.04677,-1.570757 -0.551128,-2.560208 -0.504357,-0.98945 -1.396103,-2.235534 -2.514739,-3.093024 z"
           id="path3" />
        <path
           style="fill:#ffffff;fill-opacity:1;stroke:none;stroke-width:1.5;stroke-dasharray:none;stroke-opacity:1"
           d="m 52.743413,62.464229 c 0.545675,-0.522289 1.473305,-0.92764 2.167106,-1.060164 0.693801,-0.132525 1.153718,0.0078 1.325215,0.304018 0.171497,0.296228 0.05457,0.748341 -0.36249,1.282334 -0.41706,0.533994 -1.134203,1.149801 -1.85139,1.375871 -0.717188,0.22607 -1.434347,0.06237 -1.711081,-0.339096 -0.276733,-0.401468 -0.113034,-1.040674 0.43264,-1.562963 z"
           id="path4"
           transform="matrix(0.8853212,-0.17126088,0.19324538,1.0248581,-5.2758196,5.2413224)" />
        <path
           style="fill:#ffffff;fill-opacity:1;stroke:none;stroke-width:1.5;stroke-dasharray:none;stroke-opacity:1"
           d="m 52.743413,62.464229 c 0.545675,-0.522289 1.473305,-0.92764 2.167106,-1.060164 0.693801,-0.132525 1.153718,0.0078 1.325215,0.304018 0.171497,0.296228 0.05457,0.748341 -0.36249,1.282334 -0.41706,0.533994 -1.134203,1.149801 -1.85139,1.375871 -0.717188,0.22607 -1.434347,0.06237 -1.711081,-0.339096 -0.276733,-0.401468 -0.113034,-1.040674 0.43264,-1.562963 z"
           id="path4-7"
           transform="matrix(0.48703374,0.49309526,-0.54254158,0.50568761,65.751937,7.005662)" />
        <path
           style="fill:#ffffff;fill-opacity:1;stroke:none;stroke-width:1.5;stroke-dasharray:none;stroke-opacity:1"
           d="m 52.743413,62.464229 c 0.545675,-0.522289 1.473305,-0.92764 2.167106,-1.060164 0.693801,-0.132525 1.153718,0.0078 1.325215,0.304018 0.171497,0.296228 0.05457,0.748341 -0.36249,1.282334 -0.41706,0.533994 -1.134203,1.149801 -1.85139,1.375871 -0.717188,0.22607 -1.434347,0.06237 -1.711081,-0.339096 -0.276733,-0.401468 -0.113034,-1.040674 0.43264,-1.562963 z"
           id="path4-7-5"
           transform="matrix(0.81657088,0.16255324,-0.17778339,0.89432239,24.428636,-2.2357977)" />
        <path
           style="fill:#ffffff;fill-opacity:1;stroke:none;stroke-width:1.5;stroke-dasharray:none;stroke-opacity:1"
           d="m 52.743413,62.464229 c 0.545675,-0.522289 1.473305,-0.92764 2.167106,-1.060164 0.693801,-0.132525 1.153718,0.0078 1.325215,0.304018 0.171497,0.296228 0.05457,0.748341 -0.36249,1.282334 -0.41706,0.533994 -1.134203,1.149801 -1.85139,1.375871 -0.717188,0.22607 -1.434347,0.06237 -1.711081,-0.339096 -0.276733,-0.401468 -0.113034,-1.040674 0.43264,-1.562963 z"
           id="path4-6"
           transform="matrix(0.23041069,0.50180004,-0.50990799,0.2581558,76.331608,24.499728)" />
        <path
           style="fill:#ffffff;fill-opacity:1;stroke:none;stroke-width:1.5;stroke-dasharray:none;stroke-opacity:1"
           d="m 52.743413,62.464229 c 0.545675,-0.522289 1.473305,-0.92764 2.167106,-1.060164 0.693801,-0.132525 1.153718,0.0078 1.325215,0.304018 0.171497,0.296228 0.05457,0.748341 -0.36249,1.282334 -0.41706,0.533994 -1.134203,1.149801 -1.85139,1.375871 -0.717188,0.22607 -1.434347,0.06237 -1.711081,-0.339096 -0.276733,-0.401468 -0.113034,-1.040674 0.43264,-1.562963 z"
           id="path4-9"
           transform="matrix(-0.23325381,-0.51166657,0.54467808,-0.24946883,34.895608,118.95377)" />
        <path
           style="fill:#ffffff;fill-opacity:1;stroke:none;stroke-width:1.5;stroke-dasharray:none;stroke-opacity:1"
           d="m 52.743413,62.464229 c 0.545675,-0.522289 1.473305,-0.92764 2.167106,-1.060164 0.693801,-0.132525 1.153718,0.0078 1.325215,0.304018 0.171497,0.296228 0.05457,0.748341 -0.36249,1.282334 -0.41706,0.533994 -1.134203,1.149801 -1.85139,1.375871 -0.717188,0.22607 -1.434347,0.06237 -1.711081,-0.339096 -0.276733,-0.401468 -0.113034,-1.040674 0.43264,-1.562963 z"
           id="path4-5"
           transform="matrix(-0.42423257,-0.48612384,0.49602304,-0.5403003,47.105969,138.22988)" />
        <path
           style="fill:#ffffff;fill-opacity:1;stroke:none;stroke-width:1.5;stroke-dasharray:none;stroke-opacity:1"
           d="m 52.743413,62.464229 c 0.545675,-0.522289 1.473305,-0.92764 2.167106,-1.060164 0.693801,-0.132525 1.153718,0.0078 1.325215,0.304018 0.171497,0.296228 0.05457,0.748341 -0.36249,1.282334 -0.41706,0.533994 -1.134203,1.149801 -1.85139,1.375871 -0.717188,0.22607 -1.434347,0.06237 -1.711081,-0.339096 -0.276733,-0.401468 -0.113034,-1.040674 0.43264,-1.562963 z"
           id="path4-5-1"
           transform="matrix(-0.75346848,-0.14551619,0.09069215,-0.85637616,90.82684,142.75689)" />
        <path
           style="fill:#ffffff;fill-opacity:1;stroke:none;stroke-width:1.5;stroke-dasharray:none;stroke-opacity:1"
           d="m 52.743413,62.464229 c 0.545675,-0.522289 1.473305,-0.92764 2.167106,-1.060164 0.693801,-0.132525 1.153718,0.0078 1.325215,0.304018 0.171497,0.296228 0.05457,0.748341 -0.36249,1.282334 -0.41706,0.533994 -1.134203,1.149801 -1.85139,1.375871 -0.717188,0.22607 -1.434347,0.06237 -1.711081,-0.339096 -0.276733,-0.401468 -0.113034,-1.040674 0.43264,-1.562963 z"
           id="path4-3"
           transform="matrix(-0.91750517,0.12766026,-0.14211676,-0.93833813,116.79857,135.58439)" />
        <path
           style="fill:#ffffff;stroke-width:21.1667;stroke-linecap:round"
           d="m 40.566982,78.554085 c -1.648292,0.632161 -2.385508,-6.684667 -1.353932,-11.182956 1.031576,-4.498289 5.448618,-10.795492 6.73731,-9.328786 1.288692,1.466706 -4.416427,5.207529 -5.523431,9.359837 -1.107004,4.152308 1.788345,10.519744 0.140053,11.151905 z"
           id="path5" />
      </g>
      <text
         xml:space="preserve"
         style="font-size:3.175px;text-align:start;writing-mode:lr-tb;direction:ltr;text-anchor:start;fill:#ffffff;fill-opacity:1;stroke:none;stroke-width:1;stroke-dasharray:none;stroke-opacity:1"
         x="81.570663"
         y="84.982269"
         id="text4"><tspan
           id="tspan4"
           style="font-style:oblique;font-variant:normal;font-weight:normal;font-stretch:normal;font-size:35.2778px;font-family:'DejaVu Sans';-inkscape-font-specification:'DejaVu Sans, Oblique';font-variant-ligatures:normal;font-variant-caps:normal;font-variant-numeric:normal;font-variant-east-asian:normal;fill:#ffffff;fill-opacity:1;stroke:none;stroke-width:1;stroke-dasharray:none;stroke-opacity:1"
           x="81.570663"
           y="84.982269">Marbel</tspan></text>
    </g>
  </g>
</svg>
